<?xml version="1.0" encoding="UTF-8" standalone="no"?>
<!-- Created with Inkscape (http://www.inkscape.org/) -->
<svg id="svg2" xmlns:rdf="http://www.w3.org/1999/02/22-rdf-syntax-ns#" xmlns="http://www.w3.org/2000/svg" height="25.5" width="59.47" version="1.1" xmlns:cc="http://creativecommons.org/ns#" xmlns:dc="http://purl.org/dc/elements/1.1/">
	<metadata id="metadata7">
		<rdf:RDF>
			<cc:Work rdf:about="">
				<dc:format>image/svg+xml</dc:format>
				<dc:type rdf:resource="http://purl.org/dc/dcmitype/StillImage"/>
				<dc:title/>
			</cc:Work>
		</rdf:RDF>
	</metadata>
	<path id="02100" d="M-135.72-59.73l0.69,0.384,0.7,0.383-0.85-0.011-0.2-0.06,0.32,0.843-0.39-0.208-0.12-0.547-0.92-0.313,0.23-0.367,0.54-0.104" stroke="#000" stroke-width="1px" fill="none"/>
	<path id="72071" d="M-67.106-18.516l0.148,0.028,0.039,0.093h-0.093-0.017l-0.027-0.066-0.05-0.055" stroke="#000" stroke-width="1px" fill="none"/>
	<path id="72027" d="M-66.837-18.488l0.011,0.148-0.066-0.028h-0.005l-0.006-0.115,0.066-0.005" stroke="#000" stroke-width="1px" fill="none"/>
	<path id="72073" d="M-66.569-18.297l0.028,0.132-0.006,0.011h-0.005l-0.099-0.006,0.082-0.137" stroke="#000" stroke-width="1px" fill="none"/>
	<path id="72029" d="M-65.912-18.401l0.044,0.022,0.033,0.104-0.016,0.022-0.066-0.016v-0.132h0.005" stroke="#000" stroke-width="1px" fill="none"/>
	<path id="72103" d="M-65.824-18.275l0.055-0.005,0.109,0.071-0.082,0.033-0.082-0.022v-0.077" stroke="#000" stroke-width="1px" fill="none"/>
	<path id="72105" d="M-66.257-18.329l0.05,0.011v0.043l-0.061,0.028h-0.043l0.032-0.082h0.022" stroke="#000" stroke-width="1px" fill="none"/>
	<path id="72085" d="M-65.824-18.275v0.077l-0.055,0.082-0.027-0.011-0.022,0.006v-0.022l0.077-0.11,0.016-0.022h0.011" stroke="#000" stroke-width="1px" fill="none"/>
	<path id="72129" d="M-65.966-18.231h0.016l0.022,0.088v0.022l-0.082,0.044-0.044-0.033v-0.006l0.055-0.093,0.033-0.022" stroke="#000" stroke-width="1px" fill="none"/>
	<path id="72109" d="M-66.054-18.105v-0.005l0.044,0.033,0.022,0.016,0.076,0.077-0.109,0.005-0.038-0.06-0.022,0.005,0.027-0.071" stroke="#000" stroke-width="1px" fill="none"/>
	<path id="72033" d="M-66.125-18.461l0.016,0.022-0.022,0.017-0.038-0.011,0.027-0.028h0.017" stroke="#000" stroke-width="1px" fill="none"/>
	<path id="72035" d="M-66.098-18.16v-0.011l0.044,0.055v0.006,0.005h-0.022l-0.088,0.055-0.06-0.044,0.006-0.049,0.12-0.017" stroke="#000" stroke-width="1px" fill="none"/>
	<path id="72037" d="M-65.753-18.297l0.121,0.011-0.028,0.077-0.109-0.071,0.011-0.011,0.005-0.006" stroke="#000" stroke-width="1px" fill="none"/>
	<path id="72097" d="M-67.16-18.275l0.076,0.022,0.066,0.055-0.033,0.022-0.033,0.027-0.033-0.011-0.043,0.006-0.022-0.017-0.006-0.098,0.028-0.006" stroke="#000" stroke-width="1px" fill="none"/>
	<path id="72095" d="M-65.988-18.061l0.137,0.049-0.061,0.028-0.076-0.077" stroke="#000" stroke-width="1px" fill="none"/>
	<path id="72139" d="M-65.999-18.379l0.055,0.088-0.039-0.022-0.038,0.006-0.022-0.006,0.044-0.066" stroke="#000" stroke-width="1px" fill="none"/>
	<path id="72091" d="M-66.437-18.483l-0.006,0.11h-0.022l-0.011,0.005-0.06,0.017-0.005-0.05v-0.005l0.005-0.077,0.099-0.005v0.005" stroke="#000" stroke-width="1px" fill="none"/>
	<path id="02122" d="M-153.43-61.427h0.43l1.66,0.005,0.37,0.23-1.11,0.498-0.49,0.625-0.64,0.433-0.4,0.016-0.65,0.476,0.95,0.296-0.02-0.005-0.97,0.208h-0.34l-0.11-0.608,1.1-0.531,0.21-1.123,0.01-0.52m3.7,0.432l0.99,0.263,0.15,0.772-0.77-0.142-0.38,0.372-1.85,0.57-0.3-0.263,0.73-0.17-0.71-0.186,0.45-0.433,0.01-0.509,1.01-0.318,0.66,0.044h0.01" stroke="#000" stroke-width="1px" fill="none"/>
	<path id="72045" d="M-66.207-18.275l0.016,0.017,0.022,0.033-0.071,0.038-0.028-0.06,0.061-0.028" stroke="#000" stroke-width="1px" fill="none"/>
	<path id="02016" d="M-166.38-54.012l0.26,0.159-0.76,0.422-0.15-0.515,0.65-0.066m-2.41,0.855l0.78-0.411,0.17,0.181-1.13,0.509,0.18-0.279" stroke="#000" stroke-width="1px" fill="none"/>
	<path id="02013" d="M-158.89-56.794l-1.01,0.301,0.03,0.603,0.31,0.257-0.25-0.224-0.73,0.383-0.97,0.11-0.45,0.257-1.07,0.164-0.56,0.329-1.26,0.197,0.3-0.471,1.67-0.296,1.07-0.706,1.22-0.099,0.78-0.558,0.92-0.258v0.011" stroke="#000" stroke-width="1px" fill="none"/>
	<path id="72041" d="M-66.147-18.231l0.027,0.022,0.022,0.038v0.011l-0.12,0.017-0.022-0.038v-0.006l0.071-0.038,0.022-0.006" stroke="#000" stroke-width="1px" fill="none"/>
	<path id="02240" d="M-141.84-65.464l0.84-0.378v3.938l-0.83,0.006-0.13-0.614-0.35-0.17-0.79,0.066-0.03-0.498-2.02-0.022-0.21-0.088-1.12,0.049-0.01-0.306h-0.49l-0.02-0.778,0.76-0.049,2.18-0.373,1.45-0.712,0.77-0.071" stroke="#000" stroke-width="1px" fill="none"/>
	<path id="72093" d="M-66.914-18.192l0.017,0.005,0.06,0.016-0.088,0.022-0.055,0.006-0.071-0.033,0.033-0.022,0.104,0.006" stroke="#000" stroke-width="1px" fill="none"/>
	<path id="72153" d="M-66.826-18.171l0.027,0.039-0.055,0.175h-0.005l-0.027-0.066-0.039-0.126,0.088-0.022h0.011" stroke="#000" stroke-width="1px" fill="none"/>
	<path id="72099" d="M-67.056-18.461l0.027,0.066-0.022,0.088-0.071-0.017-0.005,0.006-0.006-0.072,0.077-0.071" stroke="#000" stroke-width="1px" fill="none"/>
	<path id="72031" d="M-65.994-18.461l0.077,0.06v0.132l-0.027-0.022-0.055-0.088-0.039-0.071,0.044-0.011" stroke="#000" stroke-width="1px" fill="none"/>
	<path id="72023" d="M-67.182-18.171l0.022,0.017,0.06,0.049-0.011,0.049v0.11l-0.071-0.225" stroke="#000" stroke-width="1px" fill="none"/>
	<path id="72025" d="M-66.021-18.307l0.022,0.098-0.055,0.093-0.044-0.055-0.022-0.038,0.055-0.093,0.022-0.011,0.022,0.006" stroke="#000" stroke-width="1px" fill="none"/>
	<path id="02068" d="M-149.23-64.358l1.23,0.017,1,0.082,0.02,0.778-1.06,0.148h-1.47l-2.38,0.536-1.11,0.072,0.56-0.444-0.41-0.482,0.61-0.006,0.19-0.345,0.75-0.011,0.55-0.35,1.52,0.005" stroke="#000" stroke-width="1px" fill="none"/>
	<path id="02060" d="M-156.99-58.886l0.67-0.011v0.285h-0.95l0.28-0.274" stroke="#000" stroke-width="1px" fill="none"/>
	<path id="02070" d="M-155.96-60.907v1.232l-1.29,0.427,0.09,0.389-0.88,0.225-0.58-0.28-0.08,0.433-0.36,0.06-0.67-0.509-0.59-0.142-0.72,0.23,0.22-0.422,0.8-0.52,0.66-0.86,0.42-0.258,2.98-0.005" stroke="#000" stroke-width="1px" fill="none"/>
	<path id="02261" d="M-145.36-63.224l0.21,0.088,2.02,0.022,0.03,0.498,0.79-0.066,0.35,0.17,0.13,0.614,0.83-0.006v1.512l-0.79-0.126h-1.38l-0.72,0.52-0.34-0.142-1.88-0.329,0.07-0.274-0.63,0.049-0.08-0.262-1.62,0.191,0.41,0.625-0.63,0.18-0.15-0.772,0.27-0.12,0.01-0.575,1.52-0.05-0.04-0.772h0.55l-0.05-0.926,1.12-0.049m-1.72,3.023l-0.79,0.417,0.76-0.597,0.03,0.18" stroke="#000" stroke-width="1px" fill="none"/>
	<path id="72079" d="M-67.067-18.066l0.082,0.016,0.027,0.016-0.022,0.083-0.131,0.005v-0.11l0.044-0.01" stroke="#000" stroke-width="1px" fill="none"/>
	<path id="72075" d="M-66.547-18.154h0.027l0.088,0.071,0.006,0.038-0.022,0.061-0.088,0.005-0.016-0.175h0.005" stroke="#000" stroke-width="1px" fill="none"/>
	<path id="72077" d="M-65.917-18.269l0.066,0.016-0.077,0.11-0.022-0.088,0.033-0.038" stroke="#000" stroke-width="1px" fill="none"/>
	<path id="15003" d="M-157.95-21.698l0.29,0.395h-0.45l0.16-0.395" stroke="#000" stroke-width="1px" fill="none"/>
	<path id="15001" d="M-155.63-18.948l-0.25-0.088-0.18-0.695,0.18-0.537,0.6,0.246,0.47,0.499-0.82,0.575" stroke="#000" stroke-width="1px" fill="none"/>
	<path id="15009" d="M-156.59-21.03l0.59,0.236-0.38,0.214-0.21-0.45" stroke="#000" stroke-width="1px" fill="none"/>
	<path id="02020" d="M-149.26-61.482l0.8,0.055-0.01,0.575-0.27,0.12-0.99-0.263h-0.01l-0.25-0.235,0.73-0.252" stroke="#000" stroke-width="1px" fill="none"/>
	<path id="72047" d="M-66.306-18.368l0.027,0.039-0.032,0.082-0.039,0.005-0.027-0.055,0.011-0.038,0.049-0.033h0.011" stroke="#000" stroke-width="1px" fill="none"/>
	<path id="72043" d="M-66.372-18.176l0.055,0.022,0.06,0.077-0.076,0.06-0.05-0.022-0.043-0.006-0.006-0.038-0.011-0.093h0.071" stroke="#000" stroke-width="1px" fill="none"/>
	<path id="72125" d="M-67.051-18.176l0.071,0.033-0.005,0.093-0.082-0.016-0.044,0.01,0.011-0.049,0.016-0.044,0.033-0.027" stroke="#000" stroke-width="1px" fill="none"/>
	<path id="72121" d="M-66.925-18.149l0.039,0.126-0.072-0.011-0.027-0.016,0.005-0.093,0.055-0.006" stroke="#000" stroke-width="1px" fill="none"/>
	<path id="02270" d="M-162.59-63.273l0.6,0.263h1.14l-0.2,0.805,0.51,0.257,0.13,0.137-1.49,0.329-0.61-0.077-1.48,0.186-0.17,0.351-1,0.104,0.2-0.104-1.15-0.471,0.51-0.367-0.07-0.279,0.63-0.4,0.41-0.559,0.56-0.164,0.76,0.224,0.72-0.235" stroke="#000" stroke-width="1px" fill="none"/>
	<path id="72141" d="M-66.711-18.313l0.104-0.016,0.038,0.032-0.082,0.137-0.022,0.006-0.049-0.066-0.093-0.011-0.011-0.093h0.055l0.06,0.011" stroke="#000" stroke-width="1px" fill="none"/>
	<path id="72069" d="M-65.824-18.198l0.082,0.022-0.055,0.104-0.082-0.044,0.055-0.082" stroke="#000" stroke-width="1px" fill="none"/>
	<path id="72067" d="M-67.117-18.16l0.033,0.011-0.016,0.044-0.06-0.049,0.043-0.006" stroke="#000" stroke-width="1px" fill="none"/>
	<path id="72065" d="M-66.766-18.483l-0.005,0.159h-0.055v-0.016l-0.011-0.148,0.071,0.005" stroke="#000" stroke-width="1px" fill="none"/>
	<path id="72061" d="M-66.131-18.422l0.022-0.017,0.028,0.142-0.061,0.017,0.011-0.142" stroke="#000" stroke-width="1px" fill="none"/>
	<path id="02050" d="M-153-62.293v0.866h-0.43l-0.01,0.52h-2.52l-2.98,0.005-0.42,0.258-0.66,0.86-0.8,0.52-0.22,0.422-0.06,0.022-0.25,0.087-0.4,0.181-0.3-0.701,0.35-0.236-0.53-0.602-0.94,0.246-0.94,0.006-0.08-0.186-1.17-0.482,0.2-0.411,1-0.104,0.17-0.351,1.48-0.186,0.61,0.077,1.49-0.329-0.13-0.137h1.27l0.74-0.17,1.47,0.088h3.33l0.73-0.263m-13.36,1.934l0.67,0.082,0.11,0.372-0.48,0.159-1.28-0.329,0.98-0.284" stroke="#000" stroke-width="1px" fill="none"/>
	<path id="02130" d="M-131.71-55.89l0.47-0.088,0.21,0.696-0.81-0.176,0.13-0.432" stroke="#000" stroke-width="1px" fill="none"/>
	<path id="72003" d="M-67.16-18.417l0.027,0.027,0.006,0.072-0.055,0.005-0.055-0.06,0.077-0.044" stroke="#000" stroke-width="1px" fill="none"/>
	<path id="72063" d="M-65.983-18.313l0.039,0.022,0.027,0.022-0.033,0.038h-0.016l-0.033,0.022-0.022-0.098,0.038-0.006" stroke="#000" stroke-width="1px" fill="none"/>
	<path id="02201" d="M-130.99-56.263l-0.08-0.142,0.97,0.29,0.12,0.833-0.36,0.361-0.58,0.132-0.17-0.4,0.19-0.51-0.34-0.279-0.47,0.088-0.26,0.394-0.25-0.241,1.23-0.526m-2.61-0.087l0.44,0.033,1.18,1.139-0.05,0.476-0.51-0.394-0.33,0.394-0.29-0.257,0.06-0.466-0.59-0.356,0.37-0.038-0.28-0.531" stroke="#000" stroke-width="1px" fill="none"/>
	<path id="72059" d="M-66.799-18.132l0.028-0.006,0.016,0.137-0.099,0.044,0.055-0.175" stroke="#000" stroke-width="1px" fill="none"/>
	<path id="72053" d="M-65.632-18.286l-0.121-0.011,0.082-0.065,0.039,0.076" stroke="#000" stroke-width="1px" fill="none"/>
	<path id="72051" d="M-66.196-18.466l-0.055,0.071-0.055,0.011-0.011-0.093,0.121,0.011" stroke="#000" stroke-width="1px" fill="none"/>
	<path id="72057" d="M-66.076-18.105h0.022l-0.027,0.071,0.011,0.066-0.137,0.006,0.043-0.088,0.088-0.055" stroke="#000" stroke-width="1px" fill="none"/>
	<path id="72055" d="M-66.958-18.034l0.072,0.011,0.027,0.066-0.121,0.006,0.022-0.083" stroke="#000" stroke-width="1px" fill="none"/>
	<path id="72054" d="M-66.541-18.401l0.005,0.05-0.055,0.011v-0.05l0.05-0.016v0.005" stroke="#000" stroke-width="1px" fill="none"/>
	<path id="72133" d="M-66.383-18.039l0.05,0.022-0.006,0.038-0.109-0.005,0.022-0.061,0.043,0.006" stroke="#000" stroke-width="1px" fill="none"/>
	<path id="72083" d="M-67.04-18.291l0.132,0.038,0.011,0.066-0.017-0.005-0.104-0.006-0.066-0.055,0.044-0.038" stroke="#000" stroke-width="1px" fill="none"/>
	<path id="72101" d="M-66.443-18.373l0.066,0.027,0.011,0.011-0.011,0.038-0.077,0.039-0.011-0.115h0.022" stroke="#000" stroke-width="1px" fill="none"/>
	<path id="72107" d="M-66.377-18.297l0.027,0.055-0.022,0.066h-0.071-0.011l-0.066,0.022h-0.027l0.006-0.011,0.087-0.093,0.077-0.039" stroke="#000" stroke-width="1px" fill="none"/>
	<path id="02180" d="M-164.4-66.581l0.16,0.799,0.48,0.345h3.96l0.21-0.087,0.01,0.602-0.4,0.176,0.02,0.695,0.26,0.258-0.99,0.257-0.16,0.526h-1.14l-0.6-0.263,0.3-0.269,1.15,0.039,0.37-0.269-0.6-0.761,0.59-0.186-0.36-0.203-1.4,0.389-0.25,0.208-0.81-0.241-1.4,0.132-1.19-0.143-0.69-0.564,0.53-0.137-1.13-0.137-0.63-0.268,2.23-0.63,1.48-0.268m-7.34,2.864l0.79,0.148,0.46-0.126,0.97,0.329,0.83,0.071-0.95,0.356-1.23-0.477-0.59,0.11-0.28-0.411" stroke="#000" stroke-width="1px" fill="none"/>
	<path id="02185" d="M-141-68.498l-5,0.011v0.487h-0.97-8.33l-1.86-0.208-4.83-0.016-0.69-0.077-1.82,0.071v0.208l-0.86-0.005-1.32-0.312,0.46-0.543,1.96-0.049,1.15-0.443,0.08-0.351,1.18-0.586,0.45,0.071,1.75-0.553,1.62-0.038,1.22-0.455,1.22,0.115-0.38,0.362,0.94-0.34,0.85,0.383,0.94-0.158,0.98,0.082-0.16,0.235,0.54,0.175,2.42-0.087,1.78,0.318,1.82,0.032,1.24,0.198,0.71-0.159,1.16,0.087,1.37,0.406,0.38-0.011v1.15" stroke="#000" stroke-width="1px" fill="none"/>
	<path id="02188" d="M-162.68-68.301l0.69,0.077,4.83,0.016,1.86,0.208-0.05,0.225,0.66,0.175-0.06,0.345,0.6,0.093-0.05,0.444-1.31,0.148-0.05,0.263-2.33-0.17-0.01,0.35-1.06,0.006-0.63,0.164v0.433l-0.21,0.087h-3.96l-0.48-0.345-0.16-0.799,0.65,0.027-0.02,0.493,1.93,0.038,0.85-0.213-1.51-0.504,0.62,0.022,0.03-0.334-1.05,0.044-0.84-0.121-0.27-0.405-1.35-0.493,0.86,0.005v-0.208l1.82-0.071" stroke="#000" stroke-width="1px" fill="none"/>
	<path id="02220" d="M-136.37-57.829l0.78-0.066,0.65,0.132,0.12,0.263-0.75-0.176-0.32,0.269-0.48-0.422m1.71,1.544l-0.01,0.115-0.74-0.64-0.28-0.559,0.27-0.197,0.57,0.159,0.21,1.122h-0.02" stroke="#000" stroke-width="1px" fill="none"/>
	<path id="72081" d="M-66.892-18.368l0.066,0.028v0.016l0.011,0.093-0.011,0.06h-0.011l-0.06-0.016-0.011-0.066,0.016-0.115" stroke="#000" stroke-width="1px" fill="none"/>
	<path id="72087" d="M-65.829-18.422l-0.039,0.043-0.044-0.022h-0.005l-0.077-0.06,0.165,0.039" stroke="#000" stroke-width="1px" fill="none"/>
	<path id="72089" d="M-65.758-18.291l0.005-0.093,0.082,0.022-0.082,0.065-0.005,0.006" stroke="#000" stroke-width="1px" fill="none"/>
	<path id="72149" d="M-66.454-18.176h0.011l0.011,0.093-0.088-0.071,0.066-0.022" stroke="#000" stroke-width="1px" fill="none"/>
	<path id="72039" d="M-66.476-18.368l0.011-0.005,0.011,0.115-0.087,0.093-0.028-0.132-0.038-0.032,0.016-0.011,0.055-0.011,0.06-0.017" stroke="#000" stroke-width="1px" fill="none"/>
	<path id="72019" d="M-66.311-18.247h0.043l0.028,0.06v0.006l-0.039,0.005-0.038,0.022-0.055-0.022,0.022-0.066,0.039-0.005" stroke="#000" stroke-width="1px" fill="none"/>
	<path id="72017" d="M-66.585-18.483h0.049l-0.005,0.077-0.05,0.016,0.006-0.093" stroke="#000" stroke-width="1px" fill="none"/>
	<path id="72013" d="M-66.585-18.483l-0.006,0.093v0.05l-0.016,0.011-0.104,0.016-0.06-0.011,0.005-0.159h0.181" stroke="#000" stroke-width="1px" fill="none"/>
	<path id="02150" d="M-153.33-58.853l0.02,0.005-0.75,0.362-0.15,0.35-0.91,0.181-1.24,0.794h-0.39l1.42-0.717v-0.313l0.86-0.169,0.17-0.285,0.97-0.208m0.39,0.827l0.27-0.537,0.59,0.411-0.86,0.126m-1.02,0.487l0.02-0.274,0.64-0.18,1.15,0.372-1.55,0.761-0.6,0.011-0.44-0.465,0.51-0.345,0.27,0.12" stroke="#000" stroke-width="1px" fill="none"/>
	<path id="02232" d="M-135.03-59.346l-0.69-0.384,0.69,0.165v0.219m-0.54,0.4l0.12,0.547-1.14,0.181-1.35-0.586,0.42-0.104,1.03-0.351,0.92,0.313m0.86,0.723l0.53,0.065,0.31,0.794-0.7,0.34-0.14-1.199m-0.88,0.328l-0.78,0.066-0.01-0.438,0.6-0.022,0.86,0.312-0.67,0.082m2.06-0.016l0.36-0.241,0.8,0.805-0.75,0.159-0.4,0.011-0.08-0.685,0.07-0.049" stroke="#000" stroke-width="1px" fill="none"/>
	<path id="72005" d="M-67.106-18.516l0.05,0.055-0.077,0.071-0.027-0.027,0.054-0.099" stroke="#000" stroke-width="1px" fill="none"/>
	<path id="72007" d="M-66.065-18.302l-0.055,0.093-0.027-0.022-0.022,0.006-0.022-0.033,0.049-0.022,0.061-0.017,0.016-0.005" stroke="#000" stroke-width="1px" fill="none"/>
	<path id="02090" d="M-146.7-65.322l0.51-0.131,0.55,0.422,1.75-0.06-0.17,0.41-2.18,0.373-0.76,0.049-1-0.082-0.65-0.263-0.01-0.608,1.96-0.11" stroke="#000" stroke-width="1px" fill="none"/>
	<path id="72131" d="M-67.012-18.395h0.093l0.022,0.027h0.005l-0.016,0.115-0.132-0.038-0.011-0.016,0.022-0.088h0.017" stroke="#000" stroke-width="1px" fill="none"/>
	<path id="02170" d="M-153-62.725l1.11-0.072,2.38-0.536h1.47l1.06-0.148h0.49l0.01,0.306,0.05,0.926h-0.55l0.04,0.772-1.52,0.05-0.8-0.055-0.73,0.252-0.98,0.038-0.37-0.23-1.66-0.005v-0.866-0.432" stroke="#000" stroke-width="1px" fill="none"/>
	<path id="72135" d="M-66.218-18.395l0.022,0.005-0.011,0.072-0.05-0.011h-0.022l-0.027-0.039h-0.011l0.011-0.016,0.055-0.011h0.033" stroke="#000" stroke-width="1px" fill="none"/>
	<path id="72137" d="M-66.142-18.461l-0.027,0.028-0.027,0.043-0.022-0.005h-0.033l0.055-0.071,0.054,0.005" stroke="#000" stroke-width="1px" fill="none"/>
	<path id="72009" d="M-66.279-18.176l0.039-0.005,0.022,0.038-0.006,0.049-0.033,0.017-0.06-0.077,0.038-0.022" stroke="#000" stroke-width="1px" fill="none"/>
	<path id="02164" d="M-153.44-60.907l-0.21,1.123-1.1,0.531,0.11,0.608h0.34l-0.17,0.285-0.86,0.169v0.313l-1.42,0.717h0.39l-1.1,0.537-0.87,0.142,0.21,0.252-0.39,0.252-0.99,0.121-0.06,0.224-0.31-0.257-0.03-0.603,1.01-0.301v-0.011l0.51-0.46,0.78-0.345,0.15-0.898,0.18-0.104h0.95v-0.285l-0.67,0.011-0.17,0.027-0.09-0.389,1.29-0.427v-1.232h2.52" stroke="#000" stroke-width="1px" fill="none"/>
	<path id="72001" d="M-66.722-18.22l0.049,0.066-0.022,0.022h-0.022l-0.054-0.006-0.028,0.006-0.027-0.039,0.011-0.06,0.093,0.011" stroke="#000" stroke-width="1px" fill="none"/>
	<path id="02280" d="M-133.12-57.188l0.75-0.159,0.53,0.745,0.77,0.197,0.08,0.142-1.23,0.526-0.5-0.482,0.27-0.454-1.07-0.504,0.4-0.011m-0.79,0.257l0.81-0.077,0.56,0.422-1.12,0.137-0.25-0.482m-0.21,0.449l-0.3-0.367,0.54,0.126-0.24,0.241m-0.54,0.197h0.02l-0.03,0.115,0.01-0.115" stroke="#000" stroke-width="1px" fill="none"/>
	<path id="02282" d="M-137.52-58.908l-0.42,0.104-0.18-0.219-1.74-0.515,0.23-0.345-0.69,0.186-1.15-0.274-1.44-0.12-0.98,0.093,0.72-0.52h1.38l0.79,0.126,1.01,0.208,0.9-0.175-0.11,0.268,1.6,0.849,0.08,0.334" stroke="#000" stroke-width="1px" fill="none"/>
	<path id="72151" d="M-65.906-18.127l0.027,0.011,0.082,0.044-0.054,0.06-0.137-0.049-0.022-0.016,0.082-0.044,0.022-0.006" stroke="#000" stroke-width="1px" fill="none"/>
	<path id="72127" d="M-66.038-18.45l0.039,0.071-0.044,0.066-0.022,0.011-0.016,0.005-0.028-0.142-0.016-0.022,0.087,0.011" stroke="#000" stroke-width="1px" fill="none"/>
	<path id="72123" d="M-66.224-18.094l0.06,0.044-0.043,0.088-0.132-0.017,0.006-0.038,0.076-0.06,0.033-0.017" stroke="#000" stroke-width="1px" fill="none"/>
	<path id="02110" d="M-135.18-58.974l0.85,0.011,0.95,0.537,0.21,0.274-0.36,0.241-0.07,0.049-1.47-0.641-0.11-0.471" stroke="#000" stroke-width="1px" fill="none"/>
	<path id="72117" d="M-67.237-18.373l0.055,0.06-0.044,0.016-0.011-0.076" stroke="#000" stroke-width="1px" fill="none"/>
	<path id="72145" d="M-66.35-18.488l-0.027,0.142-0.066-0.027,0.006-0.11v-0.005h0.087" stroke="#000" stroke-width="1px" fill="none"/>
	<path id="72015" d="M-66.059-18.039l0.038,0.06-0.049,0.011-0.011-0.066,0.022-0.005" stroke="#000" stroke-width="1px" fill="none"/>
	<path id="02290" d="M-146.97-68h0.97v-0.487l5-0.011v2.656l-0.84,0.378-0.77,0.071-1.45,0.712,0.17-0.41-1.75,0.06-0.55-0.422-0.51,0.131-1.96,0.11,0.01,0.608,0.65,0.263-1.23-0.017-1.52-0.005-0.55,0.35-0.75,0.011-0.19,0.345-0.61,0.006,0.41,0.482-0.56,0.444v0.432l-0.73,0.263h-3.33l-1.47-0.088-0.74,0.17h-1.27l-0.51-0.257,0.2-0.805,0.16-0.526,0.99-0.257-0.26-0.258-0.02-0.695,0.4-0.176-0.01-0.602v-0.433l0.63-0.164,1.06-0.006,0.01-0.35,2.33,0.17,0.05-0.263,1.31-0.148,0.05-0.444-0.6-0.093,0.06-0.345-0.66-0.175,0.05-0.225h8.33" stroke="#000" stroke-width="1px" fill="none"/>
	<path id="72011" d="M-67.122-18.324l0.071,0.017,0.011,0.016-0.044,0.038-0.076-0.022-0.028,0.006-0.038-0.028,0.044-0.016,0.055-0.005,0.005-0.006" stroke="#000" stroke-width="1px" fill="none"/>
	<path id="72143" d="M-66.317-18.477l0.011,0.093-0.011,0.016-0.049,0.033-0.011-0.011,0.027-0.142,0.033,0.011" stroke="#000" stroke-width="1px" fill="none"/>
	<path id="72115" d="M-66.903-18.483l0.006,0.115-0.022-0.027-0.039-0.093,0.055,0.005" stroke="#000" stroke-width="1px" fill="none"/>
	<path id="72113" d="M-66.651-18.16l0.099,0.006,0.016,0.175h-0.164l0.005-0.153,0.022-0.022,0.022-0.006" stroke="#000" stroke-width="1px" fill="none"/>
	<path id="72111" d="M-66.717-18.132h0.022l-0.005,0.153-0.055-0.022-0.016-0.137,0.054,0.006" stroke="#000" stroke-width="1px" fill="none"/>
	<path id="72119" d="M-65.753-18.384l-0.005,0.093-0.011,0.011-0.055,0.005h-0.011l-0.033-0.104,0.039-0.043,0.076,0.038" stroke="#000" stroke-width="1px" fill="none"/>
	<path id="72021" d="M-66.169-18.433l0.038,0.011-0.011,0.142-0.049,0.022-0.016-0.017v-0.043l0.011-0.072,0.027-0.043" stroke="#000" stroke-width="1px" fill="none"/>
</svg>
